<svg xmlns="http://www.w3.org/2000/svg" viewBox="0 0 198.68 198.68"><defs><style>.cls-1{fill:#e0632b;}.cls-2{fill:#fff;}</style></defs><title>Asset 2</title><g id="Layer_2" data-name="Layer 2"><g id="Layer_1-2" data-name="Layer 1"><circle class="cls-1" cx="99.34" cy="99.34" r="99.34"/><path class="cls-2" d="M64.24,113.62A10.34,10.34,0,0,1,67,118.39H65.77A15.55,15.55,0,0,0,64.24,113.62Z"/><path class="cls-2" d="M120,70.42v44.91c0,1.69-1,3.06-2.29,3.06H69.84c0-.23-.1-.47-.16-.69A13,13,0,0,0,57.11,108h-.85a7.42,7.42,0,0,0-2.54.45h0a13,13,0,0,0-9.16,9.2c-.07.23-.12.47-.17.7h-.78c-1.26,0-2.29-1.37-2.29-3.06V70.42c0-1.69,1-3.06,2.29-3.06h74.07C118.94,67.35,120,68.73,120,70.42Z"/><path class="cls-2" d="M150.31,118.39H130.42a10.29,10.29,0,0,1,19.88,0Z"/><path class="cls-2" d="M156.57,99.46l-18-16.8a2.48,2.48,0,0,0-1.68-.66h-10a2.46,2.46,0,0,0-2.46,2.46v31.47a2.46,2.46,0,0,0,2.46,2.47h.72a13,13,0,0,1,25.46,0h1.79a2.47,2.47,0,0,0,2.47-2.47V101.26A2.48,2.48,0,0,0,156.57,99.46ZM152,104a2.35,2.35,0,0,1-1.68.7H130.46a2.38,2.38,0,0,1-2.38-2.39V88.68a2.38,2.38,0,0,1,2.38-2.38h5.26a2.38,2.38,0,0,1,1.63.65l14.55,13.63A2.38,2.38,0,0,1,152,104Z"/><path class="cls-2" d="M67.4,121a10.29,10.29,0,0,1-20.57,0,10.15,10.15,0,0,1,.35-2.65,10.29,10.29,0,0,1,19.88,0A10.15,10.15,0,0,1,67.4,121Z"/><path class="cls-2" d="M67.4,121a10.29,10.29,0,0,1-20.57,0,10.15,10.15,0,0,1,.35-2.65,10.29,10.29,0,0,1,19.88,0A10.15,10.15,0,0,1,67.4,121Z"/><path class="cls-2" d="M150.65,121a10.29,10.29,0,0,1-20.58,0,10.15,10.15,0,0,1,.35-2.65,10.29,10.29,0,0,1,19.88,0A10.15,10.15,0,0,1,150.65,121Z"/></g></g></svg>